<?xml version="1.0" standalone="no"?><!DOCTYPE svg PUBLIC "-//W3C//DTD SVG 1.1//EN" "http://www.w3.org/Graphics/SVG/1.1/DTD/svg11.dtd"><svg t="1665309449367" class="icon" viewBox="0 0 1024 1024" version="1.1" xmlns="http://www.w3.org/2000/svg" p-id="3049" xmlns:xlink="http://www.w3.org/1999/xlink" width="128" height="128"><path d="M978.602667 178.176a42.666667 42.666667 0 0 1 41.984 34.986667l0.682666 7.68v502.698666a298.666667 298.666667 0 0 1-282.282666 298.24l-16.384 0.426667h-512a42.666667 42.666667 0 0 1-7.68-84.650667l7.68-0.682666h512a213.333333 213.333333 0 0 0 212.821333-199.338667l0.512-13.994667V220.842667a42.666667 42.666667 0 0 1 42.666667-42.666667zM682.666667 0a170.666667 170.666667 0 0 1 170.666666 170.666667v512a170.666667 170.666667 0 0 1-170.666666 170.666666H170.666667a170.666667 170.666667 0 0 1-170.666667-170.666666V170.666667a170.666667 170.666667 0 0 1 170.666667-170.666667h512z m0 85.333333H170.666667a85.333333 85.333333 0 0 0-84.736 75.349334L85.333333 170.666667v512a85.333333 85.333333 0 0 0 75.349334 84.736L170.666667 768h512a85.333333 85.333333 0 0 0 84.736-75.349333L768 682.666667V170.666667a85.333333 85.333333 0 0 0-75.349333-84.736L682.666667 85.333333z" p-id="3050"></path></svg>