<?xml version="1.0" standalone="no"?><!DOCTYPE svg PUBLIC "-//W3C//DTD SVG 1.1//EN" "http://www.w3.org/Graphics/SVG/1.1/DTD/svg11.dtd"><svg t="1666337738203" class="icon" viewBox="0 0 1024 1024" version="1.1" xmlns="http://www.w3.org/2000/svg" p-id="4516" xmlns:xlink="http://www.w3.org/1999/xlink" width="128" height="128"><path d="M738.067692 9.846154a29.538462 29.538462 0 0 1 20.873846 8.664615l246.547693 246.547693c5.553231 5.553231 8.664615 13.075692 8.664615 20.873846V984.615385a29.538462 29.538462 0 0 1-29.538461 29.538461H39.384615A29.538462 29.538462 0 0 1 9.846154 984.615385V285.932308a29.538462 29.538462 0 0 1 8.664615-20.873846L265.058462 18.510769a29.538462 29.538462 0 0 1 20.873846-8.664615z m-12.288 59.076923H298.180923L68.923077 298.180923V955.076923h886.153846V298.220308L725.779692 68.923077zM531.692308 246.153846a167.384615 167.384615 0 0 1 167.384615 167.384616v196.923076a167.384615 167.384615 0 0 1-167.384615 167.384616h-39.384616a167.384615 167.384615 0 0 1-167.384615-167.384616v-196.923076a167.384615 167.384615 0 0 1 167.384615-167.384616z m0 59.076923h-39.384616a108.307692 108.307692 0 0 0-108.307692 108.307693v196.923076a108.307692 108.307692 0 0 0 108.307692 108.307693h39.384616a108.307692 108.307692 0 0 0 108.307692-108.307693v-196.923076a108.307692 108.307692 0 0 0-108.307692-108.307693z" p-id="4517"></path></svg>