<?xml version="1.0" standalone="no"?><!DOCTYPE svg PUBLIC "-//W3C//DTD SVG 1.1//EN" "http://www.w3.org/Graphics/SVG/1.1/DTD/svg11.dtd"><svg t="1666337759479" class="icon" viewBox="0 0 1024 1024" version="1.1" xmlns="http://www.w3.org/2000/svg" p-id="5056" xmlns:xlink="http://www.w3.org/1999/xlink" width="128" height="128"><path d="M546.816 29.969067l6.109867 2.9696 414.6176 197.563733c49.800533 26.453333 69.2224 87.552 44.373333 140.6976l-2.8672 5.666133-108.407467 165.410134a107.178667 107.178667 0 0 1-4.334933 151.210666l-327.509333 299.1104a107.1104 107.1104 0 0 1-149.777067-5.2224L53.794133 603.818667a107.144533 107.144533 0 0 1-29.422933-78.779734l13.994667-303.786666a107.1104 107.1104 0 0 1 109.568-102.0928l64.853333 1.536a29.184 29.184 0 0 1 0.443733-0.238934l3.652267-1.604266L472.1664 26.624c24.951467-8.192 51.882667-6.826667 74.6496 3.345067zM146.5344 177.5616a48.674133 48.674133 0 0 0-49.834667 46.421333l-13.994666 303.752534c-0.580267 13.243733 4.232533 26.180267 13.380266 35.805866l365.226667 383.556267a48.674133 48.674133 0 0 0 68.096 2.389333l326.826667-298.496c19.456-18.568533 20.241067-49.3568 1.706666-68.846933L494.250667 200.226133a48.674133 48.674133 0 0 0-34.0992-15.086933z m96.938667 131.549867a116.667733 116.667733 0 0 1 162.6112 5.597866 112.366933 112.366933 0 0 1-5.700267 160.9728 116.667733 116.667733 0 0 1-162.645333-5.597866 112.366933 112.366933 0 0 1 5.700266-160.9728z m252.074666-228.4544l-4.334933 1.194666-118.3744 42.734934 88.746667 2.1504c26.077867 0.648533 50.8928 10.717867 69.973333 28.2624l5.0176 4.949333 322.696533 338.909867 99.566934-151.722667c11.946667-22.4256 5.051733-49.493333-13.892267-62.2592l-3.6864-2.218667L526.677333 85.0944a46.1824 46.1824 0 0 0-31.095466-4.437333z m-131.754666 274.3296a58.2656 58.2656 0 0 0-80.964267-2.730667 53.930667 53.930667 0 0 0-2.7648 77.550933c21.504 22.562133 57.856 23.825067 80.896 2.730667a53.930667 53.930667 0 0 0 2.833067-77.550933z" p-id="5057"></path></svg>