<?xml version="1.0" standalone="no"?><!DOCTYPE svg PUBLIC "-//W3C//DTD SVG 1.1//EN" "http://www.w3.org/Graphics/SVG/1.1/DTD/svg11.dtd"><svg t="1666337750660" class="icon" viewBox="0 0 1024 1024" version="1.1" xmlns="http://www.w3.org/2000/svg" p-id="4786" xmlns:xlink="http://www.w3.org/1999/xlink" width="128" height="128"><path d="M663.259429 9.069714c97.828571 0 178.724571 69.229714 178.724571 156.964572a27.428571 27.428571 0 0 1-16.859429 25.307428 200.228571 200.228571 0 0 1 189.586286 191.926857l0.146286 8.045715v423.131428a200.301714 200.301714 0 0 1-192.256 200.192l-8.045714 0.146286H209.444571a200.301714 200.301714 0 0 1-200.155428-192.256l-0.146286-8.045714V391.314286a200.301714 200.301714 0 0 1 189.769143-200.045715 27.318857 27.318857 0 0 1-16.896-25.270857C182.016 78.262857 262.948571 9.069714 360.740571 9.069714c63.268571 0 119.478857 29.001143 151.259429 73.216 31.780571-44.251429 87.990857-73.216 151.259429-73.216z m151.296 236.8H209.444571a145.444571 145.444571 0 0 0-145.261714 138.203429l-0.182857 7.241143v423.131428a145.444571 145.444571 0 0 0 138.203429 145.298286l7.241142 0.182857h605.110858a145.444571 145.444571 0 0 0 145.261714-138.203428l0.182857-7.241143V391.314286a145.444571 145.444571 0 0 0-145.444571-145.481143z m-110.116572 246.308572a27.428571 27.428571 0 0 1 2.377143 35.730285l-2.669714 3.035429-219.172572 215.881143a27.428571 27.428571 0 0 1-35.84 2.340571l-3.035428-2.706285-126.610286-129.536a27.428571 27.428571 0 0 1 36.205714-41.033143l3.035429 2.706285 107.337143 109.787429 199.570285-196.498286a27.428571 27.428571 0 0 1 38.765715 0.292572zM360.740571 63.926857c-69.266286 0-123.867429 46.738286-123.867428 102.107429a27.428571 27.428571 0 0 1-16.201143 25.014857h280.137143a27.428571 27.428571 0 0 1-16.237714-25.014857c0-55.369143-54.601143-102.107429-123.830858-102.107429z m302.518858 0c-69.229714 0-123.830857 46.738286-123.830858 102.107429a27.428571 27.428571 0 0 1-16.237714 25.014857h280.137143a27.428571 27.428571 0 0 1-16.201143-25.014857c0-55.369143-54.601143-102.107429-123.867428-102.107429z" p-id="4787"></path></svg>