<?xml version="1.0" standalone="no"?><!DOCTYPE svg PUBLIC "-//W3C//DTD SVG 1.1//EN" "http://www.w3.org/Graphics/SVG/1.1/DTD/svg11.dtd"><svg t="1666337754873" class="icon" viewBox="0 0 1059 1024" version="1.1" xmlns="http://www.w3.org/2000/svg" p-id="4921" xmlns:xlink="http://www.w3.org/1999/xlink" width="132.375" height="128"><path d="M560.904828 25.63531a70.62069 70.62069 0 0 1 32.061793 32.061793l107.060965 216.876138A70.62069 70.62069 0 0 0 753.169655 313.202759l239.333517 34.780689a70.62069 70.62069 0 0 1 39.123862 120.443586l-173.197241 168.818759a70.62069 70.62069 0 0 0-20.303448 62.49931l40.889379 238.380138a70.62069 70.62069 0 0 1-102.470621 74.469518l-214.05131-112.56938a70.62069 70.62069 0 0 0-65.747862 0l-214.05131 112.56938a70.62069 70.62069 0 0 1-102.470621-74.469518l40.889379-238.344827a70.62069 70.62069 0 0 0-20.303448-62.499311L27.648 468.391724A70.62069 70.62069 0 0 1 66.736552 347.983448L306.14069 313.202759a70.62069 70.62069 0 0 0 53.177379-38.629518l107.060965-216.876138a70.62069 70.62069 0 0 1 94.561104-32.061793zM515.531034 78.388966l-1.659586 2.718896L406.775172 298.01931a123.586207 123.586207 0 0 1-85.556965 66.277518l-7.485793 1.306482-239.333517 34.78069a17.655172 17.655172 0 0 0-11.864276 27.718621l2.08331 2.401103 173.197241 168.818759a123.586207 123.586207 0 0 1 36.581518 101.870345l-1.059311 7.521103-40.889379 238.344828a17.655172 17.655172 0 0 0 22.669241 19.879724l2.966069-1.235862 214.051311-112.534069a123.586207 123.586207 0 0 1 107.731862-3.531035l7.309241 3.531035 214.05131 112.534069a17.655172 17.655172 0 0 0 25.882483-15.430621l-0.247172-3.177931-40.889379-238.344828a123.586207 123.586207 0 0 1 30.260965-103.953655l5.296552-5.473103 173.161931-168.783449a17.655172 17.655172 0 0 0-6.708966-29.413517l-3.072-0.706207-239.333517-34.816A123.586207 123.586207 0 0 1 656.066207 304.728276l-3.566345-6.708966-107.060965-216.876138a17.655172 17.655172 0 0 0-5.508414-6.532413l-2.471724-1.483035a17.655172 17.655172 0 0 0-21.998345 5.296552z m199.256276 435.729655a26.482759 26.482759 0 0 1-6.002758 36.969931c-117.936552 85.097931-234.884414 85.097931-343.640276-0.706207a26.482759 26.482759 0 1 1 32.838621-41.560276c89.758897 70.832552 180.683034 70.832552 279.834482-0.706207a26.482759 26.482759 0 0 1 36.969931 6.002759z" p-id="4922"></path></svg>