<?xml version="1.0" standalone="no"?><!DOCTYPE svg PUBLIC "-//W3C//DTD SVG 1.1//EN" "http://www.w3.org/Graphics/SVG/1.1/DTD/svg11.dtd"><svg t="1666337745572" class="icon" viewBox="0 0 1024 1024" version="1.1" xmlns="http://www.w3.org/2000/svg" p-id="4651" xmlns:xlink="http://www.w3.org/1999/xlink" width="128" height="128"><path d="M984.615385 9.846154a29.538462 29.538462 0 0 1 29.538461 29.538461v768c0 114.215385-92.553846 206.769231-206.769231 206.769231h-590.76923A206.769231 206.769231 0 0 1 9.846154 807.384615V39.384615A29.538462 29.538462 0 0 1 39.384615 9.846154z m-29.538462 59.076923H68.923077V807.384615a147.692308 147.692308 0 0 0 139.815385 147.495385l7.876923 0.196923h590.76923a147.692308 147.692308 0 0 0 147.692308-147.692308V68.923077z m-265.846154 177.230769a29.538462 29.538462 0 0 1 29.538462 29.538462 206.769231 206.769231 0 0 1-413.538462 0 29.538462 29.538462 0 1 1 59.076923 0 147.692308 147.692308 0 0 0 295.384616 0 29.538462 29.538462 0 0 1 29.538461-29.538462z" p-id="4652"></path></svg>