<?xml version="1.0" standalone="no"?><!DOCTYPE svg PUBLIC "-//W3C//DTD SVG 1.1//EN" "http://www.w3.org/Graphics/SVG/1.1/DTD/svg11.dtd"><svg t="1665303109638" class="icon" viewBox="0 0 1243 1024" version="1.1" xmlns="http://www.w3.org/2000/svg" p-id="2502" xmlns:xlink="http://www.w3.org/1999/xlink" width="155.375" height="128"><path d="M1001.435429 0C1114.697143 0 1206.857143 92.708571 1206.857143 206.628571v363.300572a303.908571 303.908571 0 0 0-194.779429-70.363429c-169.106286 0-306.249143 137.947429-306.249143 308.041143A307.931429 307.931429 0 0 0 794.221714 1024h-588.8C92.16 1024 0 931.291429 0 817.371429V206.628571C0 92.708571 92.16 0 205.421714 0zM402.285714 256c-90.221714 0-163.620571 69.485714-163.620571 154.88 0 40.484571 16.457143 77.348571 43.446857 104.96C222.390857 552.996571 182.857143 616.96 182.857143 689.444571 182.857143 712.630857 202.752 731.428571 227.218286 731.428571c24.429714 0 44.324571-18.797714 44.324571-41.984 0-68.169143 58.624-123.721143 130.742857-123.721142 72.045714 0 130.742857 55.478857 130.742857 123.721142 0 23.186286 19.894857 41.984 44.324572 41.984 24.502857 0 44.361143-18.797714 44.361143-41.984 0-72.521143-39.533714-136.448-99.254857-173.604571a149.76 149.76 0 0 0 43.446857-104.96C565.906286 325.449143 492.507429 256 402.285714 256z m0 73.142857c40.338286 0 73.142857 32.804571 73.142857 73.142857s-32.804571 73.142857-73.142857 73.142857-73.142857-32.804571-73.142857-73.142857 32.804571-73.142857 73.142857-73.142857z m543.817143 0h-209.92c-22.820571 0-41.325714 16.384-41.325714 36.571429s18.505143 36.571429 41.325714 36.571428h209.92c22.820571 0 41.325714-16.384 41.325714-36.571428s-18.505143-36.571429-41.325714-36.571429z" p-id="2503"></path><path d="M1024 585.142857a219.428571 219.428571 0 1 1 0 438.857143 219.428571 219.428571 0 0 1 0-438.857143z m39.277714 124.708572l-81.334857 101.961142-36.681143-37.193142a38.656 38.656 0 0 0-56.283428 0.841142c-15.36 16.457143-14.994286 42.678857 0.804571 58.660572l67.510857 68.388571c7.460571 7.570286 17.444571 11.776 27.721143 11.776 0.731429 0 1.353143 0 2.084572-0.073143 11.081143-0.621714 21.430857-6.034286 28.525714-14.921142l108.8-136.411429a42.532571 42.532571 0 0 0-5.083429-58.441143 38.729143 38.729143 0 0 0-56.064 5.412572z" p-id="2504"></path></svg>