<?xml version="1.0" standalone="no"?><!DOCTYPE svg PUBLIC "-//W3C//DTD SVG 1.1//EN" "http://www.w3.org/Graphics/SVG/1.1/DTD/svg11.dtd"><svg t="1665469231901" class="icon" viewBox="0 0 1024 1024" version="1.1" xmlns="http://www.w3.org/2000/svg" p-id="3321" xmlns:xlink="http://www.w3.org/1999/xlink" width="128" height="128"><path d="M820.992 410.976l76.288 44.032-6.656 297.856-254.624 154.688-76.288-44.032 254.624-154.688 6.656-297.856z m-617.984 0l6.656 297.856 254.624 154.688-76.288 44.032-254.624-154.688-6.656-297.856 76.288-44.032zM512 260.16l261.28 143.136v286.272L512 832.704l-261.28-143.168v-286.272L512 260.16z m0 176.16l-100.48 55.04v110.144l100.48 55.04 100.48-55.04v-110.112L512 436.32zM512 128l261.28 143.136v88.096L512 216.096l-261.28 143.136V271.136L512 128z" p-id="3322"></path></svg>