<?xml version="1.0" standalone="no"?><!DOCTYPE svg PUBLIC "-//W3C//DTD SVG 1.1//EN" "http://www.w3.org/Graphics/SVG/1.1/DTD/svg11.dtd"><svg t="1665305529257" class="icon" viewBox="0 0 1024 1024" version="1.1" xmlns="http://www.w3.org/2000/svg" p-id="2914" xmlns:xlink="http://www.w3.org/1999/xlink" width="128" height="128"><path d="M512 23.272727c269.917091 0 488.727273 218.810182 488.727273 488.727273s-218.810182 488.727273-488.727273 488.727273S23.272727 781.917091 23.272727 512 242.082909 23.272727 512 23.272727z m192.046545 631.831273a34.909091 34.909091 0 0 0-49.012363-6.050909A231.540364 231.540364 0 0 1 512 698.181818a231.517091 231.517091 0 0 1-141.032727-47.592727 34.909091 34.909091 0 0 0-42.356364 55.505454A301.335273 301.335273 0 0 0 512 768c68.305455 0 133.236364-22.737455 185.995636-63.906909a34.909091 34.909091 0 0 0 6.050909-48.989091zM360.727273 349.090909a34.909091 34.909091 0 0 0-34.909091 34.909091v93.090909a34.909091 34.909091 0 0 0 69.818182 0v-93.090909a34.909091 34.909091 0 0 0-34.909091-34.909091z m302.545454 0a34.909091 34.909091 0 0 0-34.909091 34.909091v93.090909a34.909091 34.909091 0 0 0 69.818182 0v-93.090909a34.909091 34.909091 0 0 0-34.909091-34.909091z" p-id="2915"></path></svg>