<?xml version="1.0" standalone="no"?><!DOCTYPE svg PUBLIC "-//W3C//DTD SVG 1.1//EN" "http://www.w3.org/Graphics/SVG/1.1/DTD/svg11.dtd"><svg t="1665305524003" class="icon" viewBox="0 0 1024 1024" version="1.1" xmlns="http://www.w3.org/2000/svg" p-id="2776" xmlns:xlink="http://www.w3.org/1999/xlink" width="128" height="128"><path d="M34.909091 34.909091m139.636364 0l139.636363 0q139.636364 0 139.636364 139.636364l0 139.636363q0 139.636364-139.636364 139.636364l-139.636363 0q-139.636364 0-139.636364-139.636364l0-139.636363q0-139.636364 139.636364-139.636364Z" p-id="2777"></path><path d="M34.909091 570.181818m139.636364 0l139.636363 0q139.636364 0 139.636364 139.636364l0 139.636363q0 139.636364-139.636364 139.636364l-139.636363 0q-139.636364 0-139.636364-139.636364l0-139.636363q0-139.636364 139.636364-139.636364Z" p-id="2778"></path><path d="M570.181818 34.909091m139.636364 0l139.636363 0q139.636364 0 139.636364 139.636364l0 139.636363q0 139.636364-139.636364 139.636364l-139.636363 0q-139.636364 0-139.636364-139.636364l0-139.636363q0-139.636364 139.636364-139.636364Z" p-id="2779"></path><path d="M570.181818 570.181818m139.636364 0l139.636363 0q139.636364 0 139.636364 139.636364l0 139.636363q0 139.636364-139.636364 139.636364l-139.636363 0q-139.636364 0-139.636364-139.636364l0-139.636363q0-139.636364 139.636364-139.636364Z" p-id="2780"></path></svg>