<?xml version="1.0" standalone="no"?><!DOCTYPE svg PUBLIC "-//W3C//DTD SVG 1.1//EN" "http://www.w3.org/Graphics/SVG/1.1/DTD/svg11.dtd"><svg t="1665286865512" class="icon" viewBox="0 0 1024 1024" version="1.1" xmlns="http://www.w3.org/2000/svg" p-id="2367" xmlns:xlink="http://www.w3.org/1999/xlink" width="128" height="128"><path d="M875.648 0a146.9184 146.9184 0 0 1 146.7392 146.7392v598.8608c0 39.168-15.2576 76.032-42.9568 103.7824a145.792 145.792 0 0 1-103.7824 42.9824h-147.4816l-150.6304 110.72a107.52 107.52 0 0 1-131.5584-3.0976l-132.6592-107.6224H148.352a146.9184 146.9184 0 0 1-146.7392-146.7392V146.7392A146.9184 146.9184 0 0 1 148.352 0h727.296z m0 97.4592H148.352a49.3312 49.3312 0 0 0-49.2544 49.28v598.8608c0 27.1616 22.0928 49.28 49.2544 49.28h199.5264l159.5136 129.3824c3.584 2.8928 8.6784 3.0208 12.3904 0.256l176.384-129.6384h179.4816c13.1584 0 25.5488-5.12 34.816-14.4384 9.3184-9.2928 14.4384-21.6832 14.4384-34.8416V146.688a49.3056 49.3056 0 0 0-49.2544-49.2544zM550.4 665.6v89.6H460.8V665.6h89.6zM511.1808 204.8c191.488 0 179.8912 180.5568 179.8912 180.5568v1.152c-0.2048 8.2944-3.84 59.904-63.3088 105.856-64.896 50.176-78.2848 46.72-78.2848 122.0352h-88.2688s-27.3152-110.0288 99.84-173.7984c26.7264-13.4144 36.7872-28.4672 36.7872-78.592 0-50.0992-31.744-80.3072-78.336-80.3072s-94.8992 8.3968-94.8992 103.68l-91.5968 1.7152s-0.1536-2.048-0.2048-5.7088v-3.5328c0.384-37.0688 13.0048-173.056 178.3808-173.056z" p-id="2368"></path></svg>