<?xml version="1.0" standalone="no"?><!DOCTYPE svg PUBLIC "-//W3C//DTD SVG 1.1//EN" "http://www.w3.org/Graphics/SVG/1.1/DTD/svg11.dtd"><svg t="1665286837387" class="icon" viewBox="0 0 1024 1024" version="1.1" xmlns="http://www.w3.org/2000/svg" p-id="2095" xmlns:xlink="http://www.w3.org/1999/xlink" width="128" height="128"><path d="M412.097561 899.121951a112.390244 112.390244 0 1 0 224.780488 0M512 0a49.95122 49.95122 0 0 1 49.95122 49.95122v28.072585C759.108683 102.599805 911.609756 270.73561 911.609756 474.536585v299.707317h49.95122a49.95122 49.95122 0 1 1 0 99.902439H62.439024a49.95122 49.95122 0 1 1 0-99.902439h49.95122V474.536585c0-203.800976 152.526049-371.93678 349.658536-396.51278V49.95122a49.95122 49.95122 0 0 1 49.95122-49.95122z m0 174.829268C349.034146 174.829268 216.438634 304.92722 212.392585 466.919024L212.292683 474.536585v299.707317h599.414634V474.536585c0-162.965854-130.097951-295.561366-292.089756-299.607414L512 174.829268z" p-id="2096"></path></svg>