<?xml version="1.0" standalone="no"?><!DOCTYPE svg PUBLIC "-//W3C//DTD SVG 1.1//EN" "http://www.w3.org/Graphics/SVG/1.1/DTD/svg11.dtd"><svg t="1665286860388" class="icon" viewBox="0 0 1024 1024" version="1.1" xmlns="http://www.w3.org/2000/svg" p-id="2230" xmlns:xlink="http://www.w3.org/1999/xlink" width="128" height="128"><path d="M793.6 25.6a204.8 204.8 0 0 1 204.8 204.8v563.2a204.8 204.8 0 0 1-204.8 204.8H230.4a204.8 204.8 0 0 1-204.8-204.8V230.4a204.8 204.8 0 0 1 204.8-204.8h563.2z m0 97.28H230.4a107.52 107.52 0 0 0-107.392 102.144L122.88 230.4v563.2a107.52 107.52 0 0 0 102.144 107.392L230.4 901.12h563.2a107.52 107.52 0 0 0 107.392-102.144L901.12 793.6V230.4a107.52 107.52 0 0 0-102.144-107.392L793.6 122.88z" p-id="2231"></path><path d="M62.6176 268.8m48.64 0l801.4848 0q48.64 0 48.64 48.64l0 0q0 48.64-48.64 48.64l-801.4848 0q-48.64 0-48.64-48.64l0 0q0-48.64 48.64-48.64Z" p-id="2232"></path><path d="M682.24 268.8v395.776a25.6 25.6 0 0 1-37.3248 22.784L512 618.9312l-132.9152 68.4288a25.6 25.6 0 0 1-37.3248-22.784V268.8h340.48z m-97.28 97.28h-145.9456v180.9664L512 509.5168l72.96 37.5296V366.08z" p-id="2233"></path></svg>