<?xml version="1.0" standalone="no"?><!DOCTYPE svg PUBLIC "-//W3C//DTD SVG 1.1//EN" "http://www.w3.org/Graphics/SVG/1.1/DTD/svg11.dtd"><svg t="1665392584698" class="icon" viewBox="0 0 1024 1024" version="1.1" xmlns="http://www.w3.org/2000/svg" p-id="3184" xmlns:xlink="http://www.w3.org/1999/xlink" width="128" height="128"><path d="M472.749419 450.77471a68.781419 68.781419 0 1 0 93.960258 25.17058 68.864 68.864 0 0 0-93.960258-25.17058m-33.924129-58.772645c65.354323-37.731097 148.917677-15.335226 186.648775 50.019096 37.739355 65.354323 15.343484 148.917677-50.010839 186.648774-65.354323 37.739355-148.925935 15.343484-186.657032-50.010838-37.731097-65.354323-15.335226-148.925935 50.019096-186.657032zM427.685161 824.187871l423.225807-244.356129a33.932387 33.932387 0 1 1 33.940645 58.772645l-423.242323 244.356129a33.932387 33.932387 0 1 1-33.932387-58.772645z" p-id="3185"></path><path d="M345.071484 933.532903a16.962065 16.962065 0 0 1-14.418581-24.980645L416.206452 747.503484a16.962065 16.962065 0 0 1 29.704258-0.462452l96.701935 167.498323a16.962065 16.962065 0 0 1-15.277419 25.434839l-182.255484-6.441291zM785.589677 466.704516a33.932387 33.932387 0 0 1 46.360775 12.420129l65.32129 113.135484a33.932387 33.932387 0 1 1-58.780903 33.924129l-65.321291-113.135484a33.932387 33.932387 0 0 1 12.428387-46.344258zM139.148387 385.395613l423.242323-244.356129a33.932387 33.932387 0 1 1 33.932387 58.772645L173.089032 444.168258a33.932387 33.932387 0 1 1-33.940645-58.772645z" p-id="3186"></path><path d="M678.928516 90.467097a16.962065 16.962065 0 0 1 14.418581 24.980645L607.793548 276.496516a16.962065 16.962065 0 0 1-29.704258 0.462452l-96.701935-167.498323a16.962065 16.962065 0 0 1 15.277419-25.434839l182.255484 6.441291zM139.164903 385.403871a33.932387 33.932387 0 0 1 46.352516 12.428387l52.587355 91.086452a33.932387 33.932387 0 0 1-58.764387 33.940645l-52.595613-91.102968a33.932387 33.932387 0 0 1 12.420129-46.344258z" p-id="3187"></path></svg>